<svg width="40" height="40" viewBox="0 0 40 40" fill="none" xmlns="http://www.w3.org/2000/svg">
<circle cx="20" cy="20.001" r="20" fill="#4E6297"/>
<path d="M29 13.8196C29 12.3222 27.6788 11.001 26.1813 11.001H14.8186C13.3212 11.001 12 12.3222 12 13.8196V25.1823C12 26.6797 13.3212 28.001 14.8186 28.001H20.544V21.5709H18.4301V18.7523H20.544V17.6072C20.544 15.6694 21.9534 13.9958 23.715 13.9958H26.0052V16.8144H23.715C23.4508 16.8144 23.1865 17.0787 23.1865 17.6072V18.7523H26.0052V21.5709H23.1865V28.001H26.1813C27.6788 28.001 29 26.6797 29 25.1823V13.8196Z" fill="white"/>
</svg>
