<svg width="40" height="40" viewBox="0 0 40 40" fill="none" xmlns="http://www.w3.org/2000/svg">
<circle cx="20" cy="20.001" r="20" fill="#2878B7"/>
<path d="M28 20.7454V26.2611H24.7713V21.0817C24.7713 19.8037 24.3004 18.9292 23.157 18.9292C22.2825 18.9292 21.7444 19.5346 21.5426 20.0727C21.4753 20.2745 21.4081 20.5436 21.4081 20.8799V26.2611H18.1794C18.1794 26.2611 18.2466 17.5167 18.1794 16.6422H21.4081V17.9875C21.8117 17.3149 22.6188 16.3732 24.3004 16.3732C26.3856 16.3732 28 17.7857 28 20.7454ZM14.8161 12.001C13.7399 12.001 13 12.7409 13 13.6826C13 14.6243 13.6726 15.3642 14.7489 15.3642C15.8924 15.3642 16.565 14.6243 16.565 13.6826C16.6323 12.6736 15.9596 12.001 14.8161 12.001ZM13.2018 26.2611H16.4305V16.6422H13.2018V26.2611Z" fill="white"/>
</svg>
