<svg width="40" height="40" viewBox="0 0 40 40" fill="none" xmlns="http://www.w3.org/2000/svg">
<circle cx="20" cy="20.001" r="20" fill="#E88D3E"/>
<path d="M14.5 23.101C13.8 23.101 13.2 23.301 12.8 23.801C12.3 24.301 12.1 24.901 12.1 25.501C12.1 26.201 12.3 26.801 12.8 27.201C13.3 27.701 13.9 27.901 14.5 27.901C15.2 27.901 15.8 27.701 16.2 27.201C16.7 26.701 16.9 26.101 16.9 25.501C16.9 24.801 16.7 24.201 16.2 23.801C15.8 23.301 15.2 23.101 14.5 23.101Z" fill="white"/>
<path d="M20.2 19.901C19.2 18.901 18.1 18.201 16.9 17.601C15.7 17.001 14.4 16.701 13 16.601H12.9C12.7 16.601 12.5 16.701 12.3 16.801C12.1 17.001 12 17.201 12 17.401V19.101C12 19.301 12.1 19.501 12.2 19.601C12.3 19.801 12.5 19.801 12.7 19.901C14.7 20.101 16.3 20.901 17.7 22.301C19.1 23.701 19.9 25.401 20.1 27.301C20.1 27.501 20.2 27.701 20.4 27.801C20.6 27.901 20.7 28.001 21 28.001H22.7C22.9 28.001 23.1 27.901 23.3 27.701C23.5 27.501 23.5 27.301 23.5 27.101C23.4 25.701 23 24.401 22.5 23.201C21.9 21.901 21.1 20.801 20.2 19.901Z" fill="white"/>
<path d="M28.5 20.701C27.6 18.701 26.3 16.801 24.7 15.301C23.1 13.701 21.3 12.501 19.3 11.501C17.3 10.601 15.1 10.101 12.9 10.001C12.7 10.001 12.5 10.101 12.3 10.201C12.1 10.401 12 10.601 12 10.801V12.601C12 12.801 12.1 13.001 12.2 13.201C12.3 13.401 12.5 13.401 12.7 13.401C14.5 13.501 16.3 13.901 17.9 14.701C19.5 15.501 21 16.401 22.2 17.701C23.4 18.901 24.4 20.301 25.2 22.001C26 23.601 26.4 25.401 26.5 27.201C26.5 27.401 26.6 27.601 26.7 27.701C26.9 27.801 27 27.901 27.3 27.901H29.1C29.3 27.901 29.5 27.801 29.7 27.601C29.9 27.401 29.9 27.201 29.9 27.001C29.9 24.901 29.4 22.801 28.5 20.701Z" fill="white"/>
</svg>
