<svg width="40" height="40" viewBox="0 0 40 40" fill="none" xmlns="http://www.w3.org/2000/svg">
<circle cx="20" cy="20.001" r="20" fill="#55ACE3"/>
<path d="M30.6 14.901C29.9 15.201 29.1 15.401 28.3 15.501C29.1 15.001 29.8 14.201 30.1 13.301C29.3 13.801 28.5 14.101 27.5 14.301C26.8 13.501 25.7 13.001 24.6 13.001C22.4 13.001 20.6 14.801 20.6 17.001C20.6 17.301 20.6 17.601 20.7 17.901C17.4 17.701 14.4 16.101 12.4 13.701C12.1 14.301 11.9 15.001 11.9 15.701C11.9 17.101 12.6 18.301 13.7 19.001C13 19.001 12.4 18.801 11.9 18.501C11.9 20.401 13.3 22.101 15.1 22.401C14.8 22.501 14.4 22.501 14 22.501C13.7 22.501 13.5 22.501 13.2 22.401C13.7 24.001 15.2 25.201 17 25.201C15.6 26.301 13.9 26.901 12 26.901C11.7 26.901 11.4 26.901 11 26.801C12.8 27.901 14.9 28.601 17.2 28.601C24.6 28.601 28.6 22.501 28.6 17.201V16.701C29.4 16.401 30.1 15.701 30.6 14.901Z" fill="white"/>
</svg>
